<svg xmlns="http://www.w3.org/2000/svg" width="20" height="20" viewBox="0 0 20 20">
    <path fill="#4a90e2" fill-rule="nonzero" d="M19.624 9.126c.355.753.459 1.448.31 2.086l-.754 3.998c-.03.29-.17.543-.422.76-.251.218-.54.326-.865.326H2.089c-.325 0-.614-.108-.865-.326-.252-.217-.392-.47-.422-.76l-.755-3.998a3.396 3.396 0 0 1 .311-2.086L3.865 1c.326-.667.858-1 1.598-1h2.308l-.443 4.433H4.353l5.638 4.563 5.682-4.563h-3.018L12.255 0h2.264c.74 0 1.287.333 1.642 1l3.463 8.126m-1.51 2.868a1.136 1.136 0 0 0-.221-.826c-.178-.231-.43-.347-.755-.347H2.844c-.326 0-.577.116-.755.347a1.136 1.136 0 0 0-.222.826l.311 1.608c.03.319.17.587.422.804.251.217.525.326.821.326h13.14c.326 0 .614-.109.866-.326.251-.217.392-.485.421-.804l.267-1.608"/>
</svg>

